# Blender 4.0.1
# www.blender.org
o light_model
v 0.293893 1.178282 -0.404509
v 0.509037 0.812256 -0.700629
v 0.587785 0.312256 -0.809017
v 0.509037 -0.187744 -0.700629
v 0.273266 -0.728943 -0.376119
v 0.475528 1.178282 -0.154509
v 0.823639 0.812256 -0.267617
v 0.951057 0.312256 -0.309017
v 0.823639 -0.187744 -0.267617
v 0.442154 -0.728943 -0.143665
v 0.475528 1.178282 0.154508
v 0.823639 0.812256 0.267617
v 0.951057 0.312256 0.309017
v 0.823639 -0.187744 0.267617
v 0.442154 -0.728943 0.143664
v 0.293893 1.178282 0.404509
v 0.509037 0.812256 0.700629
v 0.587785 0.312256 0.809017
v 0.509037 -0.187744 0.700629
v 0.273266 -0.728943 0.376119
v 0.000000 1.178282 0.500000
v 0.000000 0.812256 0.866025
v 0.000000 0.312256 1.000000
v 0.000000 -0.187744 0.866025
v 0.000000 -0.728943 0.464908
v -0.293893 1.178282 0.404509
v -0.509037 0.812256 0.700629
v -0.587785 0.312256 0.809017
v -0.509037 -0.187744 0.700629
v -0.273266 -0.728943 0.376119
v 0.000000 1.312256 -0.000000
v -0.475528 1.178282 0.154509
v -0.823639 0.812256 0.267617
v -0.951057 0.312256 0.309017
v -0.823639 -0.187744 0.267617
v -0.442154 -0.728943 0.143665
v -0.475528 1.178282 -0.154508
v -0.823639 0.812256 -0.267617
v -0.951057 0.312256 -0.309017
v -0.823639 -0.187744 -0.267617
v -0.442154 -0.728943 -0.143664
v -0.293893 1.178282 -0.404509
v -0.509037 0.812256 -0.700629
v -0.587785 0.312256 -0.809017
v -0.509037 -0.187744 -0.700629
v -0.273266 -0.728943 -0.376119
v -0.000000 1.178282 -0.500000
v -0.000000 0.812256 -0.866025
v -0.000000 0.312256 -1.000000
v -0.000000 -0.187744 -0.866025
v -0.000000 -0.728943 -0.464908
v 0.382879 -1.369588 -0.124405
v 0.236632 -1.369588 -0.325696
v 0.382879 -1.369588 0.124405
v 0.236632 -1.369588 0.325696
v 0.000000 -1.369588 0.402582
v -0.236632 -1.369588 0.325696
v -0.382878 -1.369588 0.124405
v 0.000000 -1.477460 -0.000000
v -0.382879 -1.369588 -0.124405
v -0.236632 -1.369588 -0.325696
v -0.000000 -1.369588 -0.402582
vn -0.5441 -0.3781 -0.7489
vn -0.7637 -0.5960 -0.2481
vn -0.8804 -0.3781 -0.2861
vn -0.0000 -0.4210 -0.9071
vn 0.5878 -0.0000 -0.8090
vn 0.5332 -0.4210 -0.7338
vn -0.0000 0.8438 -0.5367
vn 0.5159 0.4791 -0.7101
vn -0.0000 0.4791 -0.8778
vn 0.5441 -0.3781 -0.7489
vn -0.0000 -0.3781 -0.9257
vn -0.0000 -0.0000 -1.0000
vn -0.0000 1.0000 -0.0000
vn 0.3155 0.8438 -0.4342
vn 0.8627 -0.4210 -0.2803
vn 0.8348 0.4791 -0.2712
vn 0.8804 -0.3781 -0.2861
vn 0.9511 -0.0000 -0.3090
vn 0.5104 0.8438 -0.1659
vn -0.0000 -0.5960 -0.8030
vn 0.8348 0.4791 0.2712
vn 0.8804 -0.3781 0.2861
vn 0.9511 -0.0000 0.3090
vn 0.5104 0.8438 0.1659
vn -0.8804 -0.3781 0.2861
vn -0.7637 -0.5960 0.2481
vn 0.8627 -0.4210 0.2803
vn 0.5332 -0.4210 0.7338
vn 0.5441 -0.3781 0.7489
vn 0.5878 -0.0000 0.8090
vn 0.3155 0.8438 0.4342
vn 0.7637 -0.5960 0.2481
vn 0.5159 0.4791 0.7101
vn -0.0000 -0.3781 0.9257
vn -0.0000 0.4791 0.8778
vn -0.0000 -0.0000 1.0000
vn -0.0000 0.8438 0.5367
vn 0.7637 -0.5960 -0.2481
vn -0.0000 -0.4210 0.9071
vn -0.5441 -0.3781 0.7489
vn -0.5878 -0.0000 0.8090
vn -0.3155 0.8438 0.4342
vn 0.4720 -0.5960 -0.6497
vn -0.5332 -0.4210 0.7338
vn -0.5159 0.4791 0.7101
vn -0.9511 -0.0000 0.3090
vn -0.5104 0.8438 0.1659
vn 0.4720 -0.5960 0.6497
vn -0.8627 -0.4210 0.2803
vn -0.8348 0.4791 0.2712
vn -0.9511 -0.0000 -0.3090
vn -0.5104 0.8438 -0.1659
vn -0.4720 -0.5960 0.6497
vn -0.8627 -0.4210 -0.2803
vn -0.8348 0.4791 -0.2712
vn -0.3155 0.8438 -0.4342
vn -0.4720 -0.5960 -0.6497
vn -0.5878 -0.0000 -0.8090
vn -0.5332 -0.4210 -0.7338
vn -0.5159 0.4791 -0.7101
vn -0.0000 -0.5960 0.8030
vn -0.0000 -1.0000 -0.0000
vt 0.200060 0.847915
vt 0.100080 0.847915
vt 0.300040 0.666633
vt 0.400020 0.500000
vt 0.400020 0.666633
vt 0.300040 0.166733
vt 0.400020 0.333367
vt 0.300040 0.333367
vt 0.400020 0.833267
vt 0.300040 0.833267
vt 0.300040 0.500000
vt 0.350030 0.000100
vt 0.400020 0.166733
vt 0.500000 0.666633
vt 0.500000 0.333367
vt 0.500000 0.833267
vt 0.500000 0.500000
vt 0.450010 0.000100
vt 0.500000 0.166733
vt 0.400020 0.847915
vt 0.300040 0.847915
vt 0.599980 0.333367
vt 0.599980 0.833267
vt 0.599980 0.500000
vt 0.549990 0.000100
vt 0.599980 0.166733
vt 0.000100 0.847915
vt 0.599980 0.666633
vt 0.699960 0.666633
vt 0.699960 0.833267
vt 0.699960 0.500000
vt 0.649970 0.000100
vt 0.699960 0.166733
vt 0.699960 0.847915
vt 0.599980 0.847915
vt 0.699960 0.333367
vt 0.799940 0.833267
vt 0.799940 0.333367
vt 0.799940 0.500000
vt 0.749950 0.000100
vt 0.799940 0.166733
vt 0.500000 0.847915
vt 0.799940 0.666633
vt 0.899920 0.833267
vt 0.899920 0.500000
vt 0.849930 0.000100
vt 0.899920 0.166733
vt 0.899920 0.666633
vt 0.899920 0.333367
vt 0.999900 0.833267
vt 0.999900 0.500000
vt 0.949910 0.000100
vt 0.999900 0.166733
vt 0.799940 0.847915
vt 0.999900 0.666633
vt 0.999900 0.333367
vt 0.000100 0.333367
vt 0.100080 0.500000
vt 0.000100 0.500000
vt 0.000100 0.166733
vt 0.050090 0.000100
vt 0.100080 0.166733
vt 0.899920 0.847915
vt 0.999900 0.847915
vt 0.000100 0.666633
vt 0.100080 0.666633
vt 0.100080 0.333367
vt 0.100080 0.833267
vt 0.000100 0.833267
vt 0.150070 0.000100
vt 0.200060 0.166733
vt 0.200060 0.500000
vt 0.200060 0.666633
vt 0.200060 0.333367
vt 0.200060 0.833267
vt 0.250050 0.000100
vt 0.350030 0.999900
vt 0.450010 0.999900
vt 0.549990 0.999900
vt 0.649970 0.999900
vt 0.749950 0.999900
vt 0.849930 0.999900
vt 0.949910 0.999900
vt 0.050090 0.999900
vt 0.150070 0.999900
vt 0.250050 0.999900
s 1
f 46/1/1 60/2/2 41/2/3
f 50/3/4 3/4/5 4/5/6
f 47/6/7 2/7/8 48/8/9
f 50/3/4 5/9/10 51/10/11
f 48/8/9 3/4/5 49/11/12
f 47/6/7 31/12/13 1/13/14
f 3/4/5 9/14/15 4/5/6
f 1/13/14 7/15/16 2/7/8
f 5/9/10 9/14/15 10/16/17
f 3/4/5 7/15/16 8/17/18
f 1/13/14 31/18/13 6/19/19
f 5/20/10 62/21/20 51/21/11
f 6/19/19 12/22/21 7/15/16
f 9/14/15 15/23/22 10/16/17
f 7/15/16 13/24/23 8/17/18
f 6/19/19 31/25/13 11/26/24
f 36/27/25 60/2/2 58/27/26
f 8/17/18 14/28/27 9/14/15
f 15/23/22 19/29/28 20/30/29
f 12/22/21 18/31/30 13/24/23
f 11/26/24 31/32/13 16/33/31
f 20/34/29 54/35/32 15/35/22
f 13/24/23 19/29/28 14/28/27
f 12/22/21 16/33/31 17/36/33
f 19/29/28 25/37/34 20/30/29
f 18/31/30 22/38/35 23/39/36
f 16/33/31 31/40/13 21/41/37
f 15/35/22 52/42/38 10/42/17
f 19/29/28 23/39/36 24/43/39
f 17/36/33 21/41/37 22/38/35
f 24/43/39 30/44/40 25/37/34
f 22/38/35 28/45/41 23/39/36
f 21/41/37 31/46/13 26/47/42
f 10/42/17 53/20/43 5/20/10
f 23/39/36 29/48/44 24/43/39
f 21/41/37 27/49/45 22/38/35
f 29/48/44 36/50/25 30/44/40
f 27/49/45 34/51/46 28/45/41
f 26/47/42 31/52/13 32/53/47
f 25/54/34 55/34/48 20/34/29
f 28/45/41 35/55/49 29/48/44
f 27/49/45 32/53/47 33/56/50
f 33/57/50 39/58/51 34/59/46
f 32/60/47 31/61/13 37/62/52
f 30/63/40 58/64/26 57/63/53
f 35/65/49 39/58/51 40/66/54
f 32/60/47 38/67/55 33/57/50
f 35/65/49 41/68/3 36/69/25
f 37/62/52 31/70/13 42/71/56
f 51/21/11 61/1/57 46/1/1
f 40/66/54 44/72/58 45/73/59
f 37/62/52 43/74/60 38/67/55
f 40/66/54 46/75/1 41/68/3
f 38/67/55 44/72/58 39/58/51
f 25/54/34 57/63/53 56/54/61
f 44/72/58 50/3/4 45/73/59
f 43/74/60 47/6/7 48/8/9
f 45/73/59 51/10/11 46/75/1
f 43/74/60 49/11/12 44/72/58
f 42/71/56 31/76/13 47/6/7
f 59/77/62 62/10/20 53/9/43
f 59/78/62 53/9/43 52/16/38
f 59/79/62 52/16/38 54/23/32
f 59/80/62 54/23/32 55/30/48
f 59/81/62 55/30/48 56/37/61
f 59/82/62 56/37/61 57/44/53
f 59/83/62 57/44/53 58/50/26
f 59/84/62 58/69/26 60/68/2
f 59/85/62 60/68/2 61/75/57
f 59/86/62 61/75/57 62/10/20
f 46/1/1 61/1/57 60/2/2
f 50/3/4 49/11/12 3/4/5
f 47/6/7 1/13/14 2/7/8
f 50/3/4 4/5/6 5/9/10
f 48/8/9 2/7/8 3/4/5
f 3/4/5 8/17/18 9/14/15
f 1/13/14 6/19/19 7/15/16
f 5/9/10 4/5/6 9/14/15
f 3/4/5 2/7/8 7/15/16
f 5/20/10 53/20/43 62/21/20
f 6/19/19 11/26/24 12/22/21
f 9/14/15 14/28/27 15/23/22
f 7/15/16 12/22/21 13/24/23
f 36/27/25 41/2/3 60/2/2
f 8/17/18 13/24/23 14/28/27
f 15/23/22 14/28/27 19/29/28
f 12/22/21 17/36/33 18/31/30
f 20/34/29 55/34/48 54/35/32
f 13/24/23 18/31/30 19/29/28
f 12/22/21 11/26/24 16/33/31
f 19/29/28 24/43/39 25/37/34
f 18/31/30 17/36/33 22/38/35
f 15/35/22 54/35/32 52/42/38
f 19/29/28 18/31/30 23/39/36
f 17/36/33 16/33/31 21/41/37
f 24/43/39 29/48/44 30/44/40
f 22/38/35 27/49/45 28/45/41
f 10/42/17 52/42/38 53/20/43
f 23/39/36 28/45/41 29/48/44
f 21/41/37 26/47/42 27/49/45
f 29/48/44 35/55/49 36/50/25
f 27/49/45 33/56/50 34/51/46
f 25/54/34 56/54/61 55/34/48
f 28/45/41 34/51/46 35/55/49
f 27/49/45 26/47/42 32/53/47
f 33/57/50 38/67/55 39/58/51
f 30/63/40 36/64/25 58/64/26
f 35/65/49 34/59/46 39/58/51
f 32/60/47 37/62/52 38/67/55
f 35/65/49 40/66/54 41/68/3
f 51/21/11 62/21/20 61/1/57
f 40/66/54 39/58/51 44/72/58
f 37/62/52 42/71/56 43/74/60
f 40/66/54 45/73/59 46/75/1
f 38/67/55 43/74/60 44/72/58
f 25/54/34 30/63/40 57/63/53
f 44/72/58 49/11/12 50/3/4
f 43/74/60 42/71/56 47/6/7
f 45/73/59 50/3/4 51/10/11
f 43/74/60 48/8/9 49/11/12
